<svg width="44" height="34" viewBox="0 0 44 34" fill="none" xmlns="http://www.w3.org/2000/svg">
<rect width="44" height="34" fill="#E3E3E3"/>
<g id="&#208;&#160;&#208;&#181;&#209;&#148;&#209;&#129;&#209;&#130;&#209;&#128;&#208;&#176;&#209;&#134;&#209;&#150;&#209;&#143; &#209;&#131;&#209;&#129;&#208;&#191;&#209;&#150;&#209;&#136;&#208;&#189;&#208;&#176;" filter="url(#filter0_d_306_1409)">
<path d="M-175 -299H219V601H-175V-299Z" fill="#F9F9F9" shape-rendering="crispEdges"/>
<g id="Frame 427321308">
<path id="Vector" d="M15.6976 33.5C14.7934 33.5 13.9425 33.1625 13.2511 32.4314L1.49722 20.0019C0.167594 18.5959 0.167594 16.2337 1.49722 14.8277C2.82684 13.4216 5.06061 13.4216 6.39023 14.8277L15.6976 24.67L37.6098 1.55454C38.9394 0.148487 41.1732 0.148487 42.5028 1.55454C43.8324 2.96059 43.8324 5.32275 42.5028 6.7288L18.1441 32.4314C17.5059 33.1625 16.6017 33.5 15.6976 33.5Z" fill="#3860E2"/>
<rect x="-27.5" y="-32.5" width="99" height="99" rx="49.5" stroke="#3860E2"/>
</g>
</g>
<defs>
<filter id="filter0_d_306_1409" x="-295" y="-415" width="634" height="1140" filterUnits="userSpaceOnUse" color-interpolation-filters="sRGB">
<feFlood flood-opacity="0" result="BackgroundImageFix"/>
<feColorMatrix in="SourceAlpha" type="matrix" values="0 0 0 0 0 0 0 0 0 0 0 0 0 0 0 0 0 0 127 0" result="hardAlpha"/>
<feOffset dy="4"/>
<feGaussianBlur stdDeviation="60"/>
<feComposite in2="hardAlpha" operator="out"/>
<feColorMatrix type="matrix" values="0 0 0 0 0.592157 0 0 0 0 0.623529 0 0 0 0 0.717647 0 0 0 0.15 0"/>
<feBlend mode="normal" in2="BackgroundImageFix" result="effect1_dropShadow_306_1409"/>
<feBlend mode="normal" in="SourceGraphic" in2="effect1_dropShadow_306_1409" result="shape"/>
</filter>
</defs>
</svg>
